<svg width="64" height="64" viewBox="0 0 64 64" fill="none" xmlns="http://www.w3.org/2000/svg">
<g clip-path="url(#clip0_194_347)">
<g opacity="0.16" filter="url(#filter0_f_194_347)">
<rect x="4" y="5" width="56" height="56" rx="16" fill="#73736E"/>
</g>
<rect x="4" y="4" width="56" height="56" rx="16" fill="#99C0ED"/>
<path d="M45.1898 19.1643C42.698 17.9981 40.0618 17.1694 37.3509 16.7C37.0107 17.3123 36.6177 18.1325 36.3455 18.7864C33.4658 18.3467 30.536 18.3467 27.6562 18.7864C27.3538 18.0737 27.0144 17.3773 26.6395 16.7C23.9267 17.1703 21.289 18.0016 18.7968 19.1719C13.8342 26.6668 12.4887 33.9804 13.1614 41.1843C16.0571 43.3713 19.3105 45.0389 22.7767 46.1129C23.5516 45.047 24.2395 43.9131 24.8366 42.7226C23.7108 42.2935 22.6255 41.7647 21.5937 41.1427C21.8659 40.9424 22.1304 40.7307 22.3874 40.5153C28.6389 43.4369 35.4346 43.4369 41.6105 40.5153C41.8751 40.7307 42.1396 40.9424 42.4042 41.1427C41.3799 41.7626 40.2876 42.2955 39.1575 42.7226C39.7547 43.9131 40.4426 45.0508 41.2174 46.1167C44.6871 45.0437 47.9434 43.3746 50.8403 41.1843C51.6264 32.8314 49.491 25.5859 45.1898 19.1643ZM25.687 36.7508C23.8124 36.7508 22.2703 34.9971 22.2703 32.8654C22.2703 30.7299 23.7783 28.9724 25.687 28.9724C27.5995 28.9724 29.1378 30.7261 29.1038 32.8654C29.1038 34.9971 27.5995 36.7508 25.687 36.7508ZM38.3109 36.7508C36.4362 36.7508 34.8979 34.9971 34.8979 32.8654C34.8979 30.7299 36.4022 28.9724 38.3109 28.9724C40.2234 28.9724 41.7617 30.7261 41.7277 32.8654C41.7277 34.9971 40.2234 36.7508 38.3109 36.7508Z" fill="#FBF5F5"/>
</g>
<defs>
<filter id="filter0_f_194_347" x="0" y="1" width="64" height="64" filterUnits="userSpaceOnUse" color-interpolation-filters="sRGB">
<feFlood flood-opacity="0" result="BackgroundImageFix"/>
<feBlend mode="normal" in="SourceGraphic" in2="BackgroundImageFix" result="shape"/>
<feGaussianBlur stdDeviation="2" result="effect1_foregroundBlur_194_347"/>
</filter>
<clipPath id="clip0_194_347">
<rect width="64" height="64" fill="white"/>
</clipPath>
</defs>
</svg>
