<svg width="64" height="64" viewBox="0 0 64 64" fill="none" xmlns="http://www.w3.org/2000/svg">
<rect x="4" y="4" width="56" height="56" rx="16" fill="#4E4F49"/>
<path d="M31.9948 14.2884C21.9096 14.2884 13.7336 22.4644 13.7336 32.5496C13.7376 36.3313 14.9157 40.0185 17.1051 43.1019C19.2945 46.1854 22.3872 48.513 25.9562 49.7634C26.6095 49.7375 27.128 49.2138 27.128 48.5563V45.945H25.9126C24.1102 45.945 21.9625 45.4659 21.2978 43.5101C20.4091 40.9009 17.8756 40.2631 18.6077 39.8576C18.7612 39.7726 18.9188 39.7197 19.0816 39.6959C19.2227 39.6741 19.3668 39.6751 19.512 39.6927C20.5252 39.8203 21.5902 40.8376 22.2602 41.6839C23.459 43.1959 24.1237 43.509 25.419 43.509C26.6489 43.509 27.1301 43.2052 27.1301 43.2052C27.1301 42.0437 27.661 41.1508 28.4834 40.5763C23.8168 39.8452 20.435 37.4714 20.435 32.5527C20.435 30.1956 21.0883 28.2978 22.199 26.8179C21.7002 25.1016 21.7551 23.3594 22.2612 21.5964C23.9692 21.5964 25.8856 22.5256 27.1042 23.5222C28.5933 23.0514 30.2485 22.8139 31.999 22.8139C33.7453 22.8139 35.4036 23.0504 36.9042 23.5181C38.1227 22.5225 40.036 21.5964 41.7419 21.5964C42.2397 23.3283 42.2947 25.0425 41.8218 26.7298C42.9936 28.2221 43.6885 30.1479 43.6885 32.5538C43.6885 37.4724 40.2237 39.8493 35.5208 40.5784C36.3411 41.1529 36.871 42.0447 36.871 43.2062V48.5573C36.871 49.2148 37.3905 49.7385 38.0428 49.7644C41.6118 48.5137 44.7045 46.1859 46.8938 43.1023C49.0832 40.0187 50.2612 36.3314 50.2653 32.5496C50.2705 22.4655 42.0893 14.2895 32.0042 14.2895L31.9948 14.2884Z" fill="#FBF5F5"/>
</svg>
