<svg width="64" height="64" viewBox="0 0 64 64" fill="none" xmlns="http://www.w3.org/2000/svg">
<g clip-path="url(#clip0_194_1087)">
<g opacity="0.12" filter="url(#filter0_f_194_1087)">
<rect x="4" y="5" width="56" height="56" rx="16" fill="#73736E"/>
</g>
<rect x="4" y="5" width="56" height="56" rx="16" fill="#4E4F49"/>
<path d="M32.1154 13.594C29.5557 13.5509 27.0131 14.021 24.6358 14.9768C22.2585 15.9326 20.0941 17.3551 18.2688 19.1613C16.4435 20.9674 14.9937 23.1211 14.0042 25.4968C13.0146 27.8725 12.5049 30.4227 12.5049 32.9986C12.5049 35.5745 13.0146 38.1247 14.0042 40.5004C14.9937 42.8761 16.4435 45.0298 18.2688 46.836C20.0941 48.6421 22.2585 50.0646 24.6358 51.0204C27.0131 51.9762 29.5557 52.4463 32.1154 52.4032C37.4399 52.4032 36.4402 47.948 37.7822 46.2556C38.7955 44.9733 40.1891 43.6558 41.8028 43.4847C43.6881 43.2782 44.6552 44.1312 46.1412 44.0959C48.4285 44.0388 50.0585 42.2377 50.9387 39.8363C51.4956 38.3204 51.4005 34.3406 51.4005 33.0013C51.4005 22.2817 42.7672 13.594 32.1154 13.594ZM44.7095 34.5172C45.1065 34.5051 45.5017 34.5734 45.872 34.718C46.2422 34.8625 46.5798 35.0804 46.8648 35.3587C47.1498 35.637 47.3764 35.97 47.5311 36.3381C47.6858 36.7061 47.7655 37.1017 47.7655 37.5014C47.7655 37.901 47.6858 38.2966 47.5311 38.6646C47.3764 39.0327 47.1498 39.3658 46.8648 39.6441C46.5798 39.9224 46.2422 40.1402 45.872 40.2848C45.5017 40.4293 45.1065 40.4976 44.7095 40.4855C43.9386 40.4621 43.2071 40.1375 42.67 39.5804C42.1329 39.0233 41.8325 38.2776 41.8325 37.5014C41.8325 36.7251 42.1329 35.9794 42.67 35.4224C43.2071 34.8653 43.9386 34.5406 44.7095 34.5172Z" fill="white"/>
<circle cx="21.8928" cy="25.0302" r="3.59375" transform="rotate(-30 21.8928 25.0302)" fill="#FFE27C"/>
<circle cx="19.262" cy="34.8486" r="3.59375" transform="rotate(-30 19.262 34.8486)" fill="#FC707B"/>
<circle cx="3.59375" cy="3.59375" r="3.59375" transform="matrix(-0.866025 0.5 0.5 0.866025 31.9226 15.0898)" fill="#ACF0D7"/>
<circle cx="3.59375" cy="3.59375" r="3.59375" transform="matrix(-0.866025 0.5 0.5 0.866025 41.7409 17.7206)" fill="#99C0ED"/>
</g>
<defs>
<filter id="filter0_f_194_1087" x="0" y="1" width="64" height="64" filterUnits="userSpaceOnUse" color-interpolation-filters="sRGB">
<feFlood flood-opacity="0" result="BackgroundImageFix"/>
<feBlend mode="normal" in="SourceGraphic" in2="BackgroundImageFix" result="shape"/>
<feGaussianBlur stdDeviation="2" result="effect1_foregroundBlur_194_1087"/>
</filter>
<clipPath id="clip0_194_1087">
<rect width="64" height="64" fill="white"/>
</clipPath>
</defs>
</svg>
