<svg width="64" height="64" viewBox="0 0 64 64" fill="none" xmlns="http://www.w3.org/2000/svg">
<g clip-path="url(#clip0_194_460)">
<g opacity="0.16" filter="url(#filter0_f_194_460)">
<rect x="4" y="5" width="56" height="56" rx="16" fill="#73736E"/>
</g>
<rect x="4" y="4" width="56" height="56" rx="16" fill="#FBF5F5"/>
<path d="M27.934 14.001L23.1086 15.6271L23.8707 20.5044L19.7056 22.7897L17.3683 20.5034L12.49 25.3807L15.7412 28.6319V37.4716L16.5552 37.5245V40.1664L19.8064 41.435V38.6422C22.2206 39.1656 23.3084 39.3933 24.6837 39.5042V42.0452L27.9349 43.0121V40.0136H36.0655V43.0121L39.3167 42.0452V39.5042C40.6921 39.3943 41.7798 39.1676 44.194 38.6422V41.435L47.4452 40.1664V37.5235L48.2592 37.4716V28.6309L51.5104 25.3797L46.6331 20.5024L44.2938 22.7897L40.1287 20.5024L40.8908 15.6251L36.0615 14L34.2336 17.2502H29.7638L27.934 14.001ZM23.0586 28.6339C23.6 28.6219 24.1382 28.7182 24.6418 28.917C25.1454 29.1159 25.6042 29.4133 25.9913 29.7919C26.3784 30.1705 26.6859 30.6226 26.8959 31.1217C27.1058 31.6207 27.214 32.1567 27.214 32.6982C27.214 33.2396 27.1058 33.7756 26.8959 34.2747C26.6859 34.7737 26.3784 35.2258 25.9913 35.6044C25.6042 35.983 25.1454 36.2805 24.6418 36.4793C24.1382 36.6782 23.6 36.7744 23.0586 36.7624C21.9805 36.7624 20.9465 36.3341 20.1841 35.5717C19.4217 34.8093 18.9934 33.7753 18.9934 32.6972C18.9934 31.619 19.4217 30.585 20.1841 29.8226C20.9465 29.0602 21.9805 28.6319 23.0586 28.6319V28.6339ZM40.9418 28.6339C41.4831 28.6219 42.0213 28.7182 42.5249 28.917C43.0285 29.1159 43.4873 29.4133 43.8744 29.7919C44.2615 30.1705 44.569 30.6226 44.779 31.1217C44.989 31.6207 45.0971 32.1567 45.0971 32.6982C45.0971 33.2396 44.989 33.7756 44.779 34.2747C44.569 34.7737 44.2615 35.2258 43.8744 35.6044C43.4873 35.983 43.0285 36.2805 42.5249 36.4793C42.0213 36.6782 41.4831 36.7744 40.9418 36.7624C39.8636 36.7624 38.8296 36.3341 38.0672 35.5717C37.3048 34.8093 36.8765 33.7753 36.8765 32.6972C36.8765 31.619 37.3048 30.585 38.0672 29.8226C38.8296 29.0602 39.8636 28.6319 40.9418 28.6319V28.6339ZM32.0002 31.8801C32.2138 31.8798 32.4254 31.9218 32.6227 32.0035C32.8201 32.0852 32.9994 32.2051 33.1503 32.3563C33.3012 32.5075 33.4207 32.687 33.5021 32.8845C33.5834 33.082 33.625 33.2936 33.6243 33.5072V36.7584C33.6243 37.6594 32.9011 38.3845 32.0002 38.3845C31.7865 38.385 31.5747 38.3433 31.3771 38.2618C31.1796 38.1803 31 38.0606 30.8488 37.9095C30.6977 37.7584 30.5778 37.5789 30.4962 37.3814C30.4145 37.1839 30.3727 36.9722 30.3731 36.7584V33.5082C30.3731 32.6083 31.0993 31.8811 32.0002 31.8811V31.8801ZM12.9984 37.5735L13.0513 40.8247C16.9797 46.8257 22.9038 50.3535 32.0012 49.97C41.1046 50.3545 47.0237 46.8257 50.9501 40.8247L51.002 37.5735L48.2582 38.4355V40.8257C47.4631 41.3371 45.006 42.0083 43.3809 42.4518V39.8079L40.1277 40.3173V42.4518C39.2068 43.2279 37.4918 43.7413 35.2494 44.0779V40.8267H28.748V44.0779C26.5056 43.7413 24.7916 43.2289 23.8707 42.4518V40.3173L20.6175 39.8079V42.4518C18.9914 42.0083 16.5353 41.3371 15.7402 40.8247V38.4355L12.9984 37.5735Z" fill="#99C0ED"/>
<path d="M25.4978 32.6972C25.4978 33.3441 25.2408 33.9645 24.7834 34.4219C24.326 34.8793 23.7056 35.1363 23.0587 35.1363C22.4118 35.1363 21.7914 34.8793 21.3339 34.4219C20.8765 33.9645 20.6195 33.3441 20.6195 32.6972C20.613 32.3728 20.6712 32.0503 20.7908 31.7487C20.9104 31.4471 21.089 31.1723 21.3161 30.9406C21.5432 30.7089 21.8142 30.5248 22.1134 30.3991C22.4125 30.2734 22.7337 30.2087 23.0582 30.2087C23.3826 30.2087 23.7038 30.2734 24.003 30.3991C24.3021 30.5248 24.5732 30.7089 24.8003 30.9406C25.0274 31.1723 25.206 31.4471 25.3256 31.7487C25.4452 32.0503 25.5044 32.3728 25.4978 32.6972ZM43.3809 32.6972C43.3875 33.0216 43.3293 33.344 43.2097 33.6456C43.0901 33.9473 42.9115 34.222 42.6844 34.4537C42.4573 34.6855 42.1862 34.8696 41.8871 34.9953C41.588 35.1209 41.2667 35.1857 40.9423 35.1857C40.6178 35.1857 40.2966 35.1209 39.9975 34.9953C39.6983 34.8696 39.4273 34.6855 39.2002 34.4537C38.9731 34.222 38.7945 33.9473 38.6749 33.6456C38.5553 33.344 38.4971 33.0216 38.5036 32.6972C38.4971 32.3728 38.5553 32.0503 38.6749 31.7487C38.7945 31.4471 38.9731 31.1723 39.2002 30.9406C39.4273 30.7089 39.6983 30.5248 39.9975 30.3991C40.2966 30.2734 40.6178 30.2087 40.9423 30.2087C41.2667 30.2087 41.588 30.2734 41.8871 30.3991C42.1862 30.5248 42.4573 30.7089 42.6844 30.9406C42.9115 31.1723 43.0901 31.4471 43.2097 31.7487C43.3293 32.0503 43.3875 32.3728 43.3809 32.6972Z" fill="#73736E"/>
</g>
<defs>
<filter id="filter0_f_194_460" x="0" y="1" width="64" height="64" filterUnits="userSpaceOnUse" color-interpolation-filters="sRGB">
<feFlood flood-opacity="0" result="BackgroundImageFix"/>
<feBlend mode="normal" in="SourceGraphic" in2="BackgroundImageFix" result="shape"/>
<feGaussianBlur stdDeviation="2" result="effect1_foregroundBlur_194_460"/>
</filter>
<clipPath id="clip0_194_460">
<rect width="64" height="64" fill="white"/>
</clipPath>
</defs>
</svg>
