<svg width="64" height="64" viewBox="0 0 64 64" fill="none" xmlns="http://www.w3.org/2000/svg">
<rect x="4" y="4" width="56" height="56" rx="16" fill="#99C0ED"/>
<path d="M44.0017 35.0072C47.5921 35.0072 50.5026 32.0966 50.5026 28.5063C50.5026 24.9159 47.5921 22.0054 44.0017 22.0054C40.4114 22.0054 37.5008 24.9159 37.5008 28.5063C37.5008 32.0966 40.4114 35.0072 44.0017 35.0072Z" fill="#FFE27C"/>
<path d="M33.003 41.0016C38.5263 41.0016 43.0039 36.5241 43.0039 31.0008C43.0039 25.4775 38.5263 21 33.003 21C27.4797 21 23.0022 25.4775 23.0022 31.0008C23.0022 36.5241 27.4797 41.0016 33.003 41.0016Z" fill="#FBF5F5"/>
<path d="M22.0006 43.0086C26.4197 43.0086 30.002 39.4262 30.002 35.0072C30.002 30.5881 26.4197 27.0059 22.0006 27.0059C17.5816 27.0059 13.9992 30.5881 13.9992 35.0072C13.9992 39.4262 17.5816 43.0086 22.0006 43.0086Z" fill="#FBF5F5"/>
<path d="M44.0017 43.0086C47.3144 43.0086 49.9999 40.3231 49.9999 37.0103C49.9999 33.6976 47.3144 31.0122 44.0017 31.0122C40.689 31.0122 38.0035 33.6976 38.0035 37.0103C38.0035 40.3231 40.689 43.0086 44.0017 43.0086Z" fill="#FBF5F5"/>
<path d="M22.0006 31.9835H44.0017V42.9822H22.0006V31.9835Z" fill="#FBF5F5"/>
</svg>
