<svg width="64" height="64" viewBox="0 0 64 64" fill="none" xmlns="http://www.w3.org/2000/svg">
<rect x="4" y="4" width="56" height="56" rx="16" fill="#99C0ED"/>
<rect x="12.5" y="16.5" width="39" height="31" rx="3.5" fill="#FBF5F5" stroke="#4E4F49"/>
<path d="M12 20C12 17.7909 13.7909 16 16 16H19V48H16C13.7909 48 12 46.2091 12 44V20Z" fill="#4E4F49"/>
<mask id="mask0_117_74" style="mask-type:alpha" maskUnits="userSpaceOnUse" x="12" y="16" width="7" height="32">
<path d="M12 20C12 17.7909 13.7909 16 16 16H19V48H16C13.7909 48 12 46.2091 12 44V20Z" fill="#4E4F49"/>
</mask>
<g mask="url(#mask0_117_74)">
<path d="M15 42H16V48H15V42Z" fill="#99C0ED"/>
</g>
<path d="M27.75 39.5752C29.4167 40.2418 33.55 40.9752 36.75 38.5752C39.95 36.1752 43.75 37.5752 45.25 38.5752" stroke="#99C0ED" stroke-width="0.5" stroke-linecap="round" stroke-linejoin="round"/>
<path d="M28.1981 37.8564L27.8307 39.3943L29.2815 38.7655L28.1981 37.8564Z" fill="#4E4F49" stroke="#4E4F49" stroke-width="0.35" stroke-linecap="round" stroke-linejoin="round"/>
<path d="M39 25L29 38" stroke="#4E4F49" stroke-width="2" stroke-linecap="round" stroke-linejoin="round"/>
</svg>
