<svg width="16" height="16" viewBox="0 0 16 16" fill="none" xmlns="http://www.w3.org/2000/svg">
<path d="M11 1H5C2.79086 1 1 2.79086 1 5V11C1 13.2091 2.79086 15 5 15H11C13.2091 15 15 13.2091 15 11V5C15 2.79086 13.2091 1 11 1Z" fill="#4E4F49"/>
<path d="M10.7353 4.27561C10.858 4.27221 10.9696 4.32501 11.0597 4.41346L11.0844 4.41018L11.7526 5.07896C11.842 5.16798 11.8876 5.28186 11.8903 5.40413C11.8937 5.52653 11.8429 5.63113 11.7545 5.72151L11.2106 6.27666C11.3681 6.56311 11.4776 6.85568 11.5557 7.17388L12.2529 7.17366C12.3824 7.17146 12.488 7.22251 12.5779 7.31231C12.6659 7.40873 12.7043 7.51236 12.7069 7.63531L12.7091 8.59488C12.7106 8.72453 12.6677 8.83121 12.5795 8.92093C12.4907 9.00226 12.3858 9.04891 12.2557 9.05101L11.4941 9.04826C11.4007 9.33291 11.2574 9.66973 11.0909 9.91873L11.5965 10.4129C11.6843 10.5107 11.7212 10.623 11.7232 10.7452C11.7275 10.8664 11.6819 10.9809 11.5937 11.0706L10.915 11.7481C10.8272 11.8393 10.7217 11.8859 10.592 11.8859C10.4618 11.888 10.3582 11.8373 10.2681 11.7489L9.72207 11.206C9.43032 11.3542 9.1407 11.4785 8.81922 11.5522L8.8175 12.2509C8.8189 12.3805 8.7688 12.4852 8.68045 12.5756C8.58355 12.6638 8.48012 12.7025 8.35747 12.7052L7.40157 12.7085C7.27155 12.7099 7.16585 12.6671 7.07507 12.5785C6.99312 12.4908 6.94667 12.3858 6.94615 12.2549L6.95015 11.4922C6.65947 11.3942 6.33482 11.2577 6.08035 11.0871L5.57952 11.593C5.48262 11.6812 5.3705 11.7183 5.24785 11.721C5.1272 11.7241 5.0128 11.6798 4.92282 11.5907L4.24885 10.9112C4.15932 10.8235 4.11372 10.7096 4.111 10.5874C4.1075 10.4656 4.1584 10.3604 4.24672 10.27L4.78905 9.72426C4.64117 9.43396 4.51792 9.13691 4.44542 8.81828L3.74887 8.81863C3.61885 8.82003 3.5139 8.76911 3.42392 8.67996C3.33602 8.58288 3.29692 8.47916 3.29432 8.35621L3.292 7.39728C3.29137 7.26708 3.33335 7.16163 3.42235 7.07136C3.5106 6.98926 3.6153 6.94326 3.7461 6.94128L4.507 6.94393C4.60042 6.65926 4.74382 6.32178 4.91037 6.07278L4.4157 5.57148C4.32425 5.48278 4.27857 5.37718 4.27795 5.24696C4.27457 5.12456 4.3261 5.01181 4.41565 4.92231L5.08482 4.25143C5.17237 4.16158 5.28525 4.11633 5.408 4.11293C5.53065 4.11023 5.63427 4.16093 5.7237 4.24928L6.27767 4.79421C6.55235 4.64098 6.866 4.51743 7.17305 4.44741L7.17345 3.74851C7.17202 3.61883 7.2237 3.51303 7.31125 3.42318C7.4075 3.33488 7.51237 3.29583 7.63435 3.29298L8.59147 3.29061C8.72095 3.28841 8.82652 3.33183 8.91675 3.41963C8.99777 3.50858 9.04425 3.61361 9.04635 3.74341L9.0429 4.50683C9.3287 4.60123 9.6609 4.74186 9.9108 4.91096L10.4123 4.41273C10.5005 4.32301 10.6133 4.27843 10.7353 4.27561Z" fill="#FBF5F5"/>
<path d="M7.59932 10.0996C8.7589 10.3209 9.87832 9.56027 10.0996 8.40069C10.3209 7.2411 9.56022 6.12169 8.40064 5.90042C7.24105 5.67914 6.12164 6.43978 5.90037 7.59937C5.67909 8.75895 6.43974 9.87836 7.59932 10.0996Z" fill="#4E4F49"/>
</svg>
