<svg width="64" height="64" viewBox="0 0 64 64" fill="none" xmlns="http://www.w3.org/2000/svg">
<rect x="4" y="4" width="56" height="56" rx="16" fill="#FBF5F5"/>
<path d="M30.7503 13.0081C25.8969 13.0081 21.9894 15.7978 21.9894 19.2685V21.9962H19.2582C15.7944 21.9962 13.0013 25.9037 13.0013 30.7537V33.2578C13.0013 38.1078 15.7944 42.0188 19.2617 42.0188H42.012V19.265C42.012 15.7978 38.1045 13.0081 33.251 13.0081H30.7503Z" fill="#99C0ED"/>
<path d="M33.2511 50.9828C38.1045 50.9828 42.012 48.1966 42.012 44.726V41.9983H44.7432C48.207 41.9983 51.0001 38.0907 51.0001 33.2373V30.7332C51.0001 25.8831 48.207 21.9755 44.7398 21.9755H42.012V26.9804C42.012 29.7528 39.7762 31.9852 37.0072 31.9852H26.9976C26.9976 31.9852 21.9894 31.9851 21.9894 36.9934V44.726C21.9894 48.1932 25.8969 50.9863 30.7504 50.9863L33.2511 50.9828Z" fill="#FFE27C"/>
<path d="M28.3598 20.1593C29.3647 20.1593 30.1794 19.3446 30.1794 18.3396C30.1794 17.3347 29.3647 16.5201 28.3598 16.5201C27.3548 16.5201 26.5402 17.3347 26.5402 18.3396C26.5402 19.3446 27.3548 20.1593 28.3598 20.1593Z" fill="#FBF5F5"/>
<path d="M35.6966 48.3893C36.7338 48.3893 37.5747 47.5483 37.5747 46.5111C37.5747 45.4739 36.7338 44.633 35.6966 44.633C34.6593 44.633 33.8185 45.4739 33.8185 46.5111C33.8185 47.5483 34.6593 48.3893 35.6966 48.3893Z" fill="#FBF5F5"/>
</svg>
