<svg width="64" height="64" viewBox="0 0 64 64" fill="none" xmlns="http://www.w3.org/2000/svg">
<rect x="4" y="4" width="56" height="56" rx="16" fill="#4E4F49"/>
<path d="M45.272 31.49C45.272 31.1098 44.9911 30.8906 44.6464 30.9995L20.9334 38.5213C20.5881 38.6309 20.3079 39.0284 20.3079 39.4079V47.0956C20.3079 47.4758 20.5881 47.6957 20.9334 47.5861L44.6464 40.0649C44.9911 39.9553 45.272 39.5578 45.272 39.1776V31.49Z" fill="#FAA586"/>
<path d="M20.308 31.287C20.308 31.6672 20.5881 32.0646 20.9335 32.1743L44.6465 39.6961C44.9918 39.8057 45.272 39.5858 45.272 39.2063V31.5186C45.272 31.1391 44.9918 30.7416 44.6465 30.632L20.9335 23.1102C20.5881 23.0006 20.308 23.2198 20.308 23.6V31.287Z" fill="#FAA586"/>
<path d="M45.272 15.712C45.272 15.3318 44.9911 15.1119 44.6464 15.2215L20.9334 22.7427C20.5881 22.8523 20.3079 23.2499 20.3079 23.63V31.3177C20.3079 31.6979 20.5881 31.9172 20.9334 31.8082L44.6464 24.2864C44.9911 24.1768 45.272 23.7793 45.272 23.3998V15.712Z" fill="#FAA586"/>
</svg>
