<svg width="64" height="64" viewBox="0 0 64 64" fill="none" xmlns="http://www.w3.org/2000/svg">
<rect x="4" y="4" width="56" height="56" rx="16" fill="#99C0ED"/>
<rect x="15" y="17" width="17" height="12" rx="4" fill="#CEDFF1"/>
<rect x="15" y="21" width="34" height="26" rx="4" fill="#FBF5F5"/>
<path d="M33.9729 35.391C33.7815 35.6508 33.5319 35.8621 33.2441 36.0079C32.9563 36.1537 32.6383 36.23 32.3157 36.2306C31.9929 36.2304 31.6747 36.1544 31.3866 36.0088C31.0986 35.8632 30.8487 35.652 30.6571 35.3923C29.7325 35.6102 28.934 36.0052 28.3695 36.5239C27.8049 37.0427 27.5014 37.6603 27.5 38.2934H37.13C37.129 37.6601 36.8257 37.0422 36.2611 36.5232C35.6966 36.0042 34.8979 35.609 33.9729 35.391Z" fill="#99C0ED"/>
<path d="M32.3157 33.1255C33.4549 33.1255 34.3784 32.202 34.3784 31.0627C34.3784 29.9235 33.4549 29 32.3157 29C31.1764 29 30.2529 29.9235 30.2529 31.0627C30.2529 32.202 31.1764 33.1255 32.3157 33.1255Z" fill="#99C0ED"/>
<path d="M30.2516 31.0627C30.2516 31.5144 30.3049 31.9616 30.4086 32.3789C30.5123 32.7961 30.6642 33.1753 30.8557 33.4946C31.0473 33.814 31.2747 34.0673 31.5249 34.2401C31.7752 34.413 32.0434 34.5019 32.3143 34.5019C32.5853 34.5022 32.8537 34.4135 33.1041 34.2408C33.3545 34.0681 33.5821 33.8148 33.7737 33.4954C33.9654 33.176 34.1175 32.7968 34.2212 32.3794C34.325 31.962 34.3784 31.5146 34.3784 31.0627H30.2516Z" fill="#99C0ED"/>
</svg>
