<svg width="64" height="64" viewBox="0 0 64 64" fill="none" xmlns="http://www.w3.org/2000/svg">
<rect x="4" y="4" width="56" height="56" rx="16" fill="#99C0ED"/>
<rect x="15" y="17" width="17" height="12" rx="4" fill="#CEDFF1"/>
<rect x="15" y="21" width="34" height="26" rx="4" fill="#FBF5F5"/>
<path d="M28.1499 30C27.596 30 27.15 30.5014 27.15 31.1243V37.8757C27.15 38.4986 27.596 39 28.1499 39H36.1501C36.7041 39 37.15 38.4986 37.15 37.8757V31.1243C37.15 30.5014 36.7041 30 36.1501 30H28.1499ZM28.1499 30.5677H36.1501C36.4271 30.5677 36.6501 30.8184 36.6501 31.1298V37.418L33.2305 33.5741L29.5453 37.7167C29.5251 37.6842 29.5156 37.6448 29.5184 37.6054C29.5213 37.5659 29.5363 37.5287 29.5609 37.5004L30.6194 36.3058L29.0922 34.5854L27.6499 36.2037V31.13C27.6499 30.8186 27.873 30.5677 28.1499 30.5677ZM35.1502 31.6843L35.1522 31.6864C35.0196 31.6864 34.8925 31.7454 34.7986 31.8506C34.7047 31.9557 34.6517 32.0985 34.6512 32.2475C34.6517 32.3961 34.7044 32.5385 34.7979 32.6437C34.8914 32.7488 35.018 32.808 35.1502 32.8086C35.2827 32.8086 35.4099 32.7496 35.5038 32.6444C35.5977 32.5393 35.6507 32.3965 35.6512 32.2475C35.6512 32.1735 35.6382 32.1003 35.6131 32.0319C35.5879 31.9636 35.551 31.9015 35.5045 31.8491C35.458 31.7968 35.4027 31.7553 35.3419 31.727C35.2812 31.6988 35.216 31.6842 35.1502 31.6843Z" fill="#99C0ED"/>
</svg>
