<svg width="64" height="64" viewBox="0 0 64 64" fill="none" xmlns="http://www.w3.org/2000/svg">
<rect x="4" y="4" width="56" height="56" rx="16" fill="#99C0ED"/>
<rect x="15" y="17" width="17" height="12" rx="4" fill="#CEDFF1"/>
<rect x="15" y="21" width="34" height="26" rx="4" fill="#FBF5F5"/>
<path d="M28.0338 30.0004C27.9594 30.0001 27.8856 30.0137 27.8168 30.0404C27.7479 30.0672 27.6853 30.1064 27.6326 30.156C27.5799 30.2056 27.538 30.2646 27.5095 30.3295C27.4809 30.3944 27.4662 30.464 27.4662 30.5342V39.0941C27.4662 39.3914 27.719 39.63 28.0338 39.63H33.1315L36.5329 36.4208V30.5359C36.5331 30.4656 36.5187 30.396 36.4904 30.331C36.4621 30.266 36.4205 30.2069 36.368 30.1571C36.3155 30.1073 36.253 30.0678 36.1843 30.0408C36.1155 30.0139 36.0418 30 35.9674 30L28.0338 30.0004ZM28.5993 31.0701H30.4199V33.0701H29.9658C29.9885 33.1937 30.0413 33.3107 30.1201 33.4118C30.1989 33.5129 30.3015 33.5953 30.4199 33.6524V34.3824C29.803 34.2631 29.3447 34.0023 29.047 33.5999C28.7471 33.1954 28.5993 32.6555 28.5993 31.9801L28.5993 31.0701ZM31.0325 31.0701H32.8531V33.0701H32.399C32.4204 33.2197 32.4611 33.3329 32.5232 33.4138C32.5875 33.4947 32.6946 33.5716 32.8531 33.6525V34.3824C32.2362 34.2631 31.7779 34.0023 31.4802 33.5999C31.1803 33.1954 31.0325 32.6555 31.0325 31.9801L31.0325 31.0701Z" fill="#99C0ED"/>
</svg>
