<svg width="64" height="64" viewBox="0 0 64 64" fill="none" xmlns="http://www.w3.org/2000/svg">
<rect x="4" y="4" width="56" height="56" rx="16" fill="#99C0ED"/>
<rect x="15" y="17" width="17" height="12" rx="4" fill="#CEDFF1"/>
<rect x="15" y="21" width="34" height="26" rx="4" fill="#FBF5F5"/>
<path d="M31.9165 29.0011C31.2758 28.9876 30.6388 29.1021 30.0429 29.3379C29.4471 29.5738 28.9043 29.9262 28.4464 30.3746C27.9885 30.8229 27.6247 31.3582 27.3763 31.949C27.1279 32.5397 27 33.1741 27 33.815C27 34.4559 27.1279 35.0903 27.3763 35.681C27.6247 36.2718 27.9885 36.8071 28.4464 37.2554C28.9043 37.7038 29.4471 38.0562 30.0429 38.2921C30.6388 38.5279 31.2758 38.6424 31.9165 38.6289C33.1757 38.6024 34.3743 38.0835 35.2554 37.1836C36.1365 36.2837 36.63 35.0744 36.63 33.815C36.63 32.5556 36.1365 31.3463 35.2554 30.4464C34.3743 29.5465 33.1757 29.0276 31.9165 29.0011ZM30.711 31.4074L34.3229 33.8161L30.711 36.2224V31.4074Z" fill="#99C0ED"/>
</svg>
