<svg width="64" height="64" viewBox="0 0 64 64" fill="none" xmlns="http://www.w3.org/2000/svg">
<rect x="4" y="4" width="56" height="56" rx="16" fill="#99C0ED"/>
<rect x="15" y="17" width="17" height="12" rx="4" fill="#CEDFF1"/>
<rect x="15" y="21" width="34" height="26" rx="4" fill="#FBF5F5"/>
<path d="M29.1266 30.0019C28.9787 30.0014 28.8321 30.0301 28.6953 30.0863C28.5585 30.1426 28.4342 30.2254 28.3295 30.3299C28.2248 30.4344 28.1418 30.5586 28.0852 30.6953C28.0287 30.832 27.9997 30.9785 28 31.1264V37.8755C28 38.4983 28.5017 39 29.1266 39H35.8734C36.4962 39 37 38.4983 37 37.8734V31.1266C37.0005 30.9785 36.9718 30.8318 36.9154 30.6948C36.8589 30.5579 36.776 30.4335 36.6713 30.3287C36.5665 30.224 36.4421 30.141 36.3052 30.0846C36.1682 30.0282 36.0215 29.9995 35.8734 30H29.1266V30.0019ZM29.1266 30.5631C29.2756 30.5637 29.4184 30.6233 29.5236 30.7288C29.6287 30.8344 29.6878 30.9774 29.6878 31.1264C29.6872 31.2754 29.6276 31.4182 29.5221 31.5234C29.4165 31.6285 29.2735 31.6876 29.1245 31.6876C28.9758 31.687 28.8334 31.6277 28.7283 31.5226C28.6232 31.4175 28.5639 31.2751 28.5633 31.1264C28.5633 30.9774 28.6224 30.8344 28.7275 30.7288C28.8327 30.6233 28.9755 30.5637 29.1245 30.5631H29.1266ZM35.8734 30.5631C36.0228 30.5631 36.1661 30.6225 36.2717 30.7281C36.3773 30.8337 36.4367 30.977 36.4367 31.1264C36.4361 31.2754 36.3765 31.4182 36.271 31.5234C36.1654 31.6285 36.0224 31.6876 35.8734 31.6876C35.7247 31.687 35.5823 31.6277 35.4772 31.5226C35.3721 31.4175 35.3128 31.2751 35.3122 31.1264C35.3122 30.9774 35.3713 30.8344 35.4764 30.7288C35.5816 30.6233 35.7244 30.5637 35.8734 30.5631ZM31.3733 32.2509H33.6244C34.2472 32.2509 34.7489 32.7526 34.7489 33.3754V35.6244C34.7489 36.2494 34.2473 36.751 33.6223 36.751H31.3755C31.2275 36.7513 31.081 36.7224 30.9443 36.6658C30.8076 36.6093 30.6835 36.5263 30.579 36.4216C30.4744 36.3169 30.3917 36.1925 30.3354 36.0557C30.2791 35.9189 30.2504 35.7724 30.251 35.6244V33.3754C30.251 32.7526 30.7526 32.2488 31.3776 32.2488L31.3733 32.2509ZM31.3733 32.8121C31.2994 32.8121 31.2263 32.8267 31.158 32.855C31.0898 32.8834 31.0279 32.9249 30.9757 32.9772C30.9236 33.0296 30.8823 33.0917 30.8542 33.16C30.8261 33.2283 30.8118 33.3015 30.8121 33.3754V35.6244C30.8121 35.9369 31.0629 36.1877 31.3733 36.1877H33.6244C33.6983 36.1877 33.7714 36.1731 33.8396 36.1448C33.9079 36.1164 33.9698 36.0749 34.022 36.0226C34.0741 35.9703 34.1154 35.9081 34.1435 35.8398C34.1716 35.7715 34.1859 35.6983 34.1856 35.6244V33.3754C34.1859 33.3015 34.1716 33.2283 34.1435 33.16C34.1154 33.0917 34.0741 33.0296 34.022 32.9772C33.9698 32.9249 33.9079 32.8834 33.8396 32.855C33.7714 32.8267 33.6983 32.8121 33.6244 32.8121H31.3733ZM29.1264 37.3144C29.2758 37.3144 29.4191 37.3737 29.5247 37.4793C29.6304 37.585 29.6897 37.7283 29.6897 37.8777C29.6892 38.0267 29.6296 38.1694 29.524 38.2746C29.4184 38.3798 29.2755 38.4388 29.1264 38.4388C28.9778 38.4383 28.8354 38.379 28.7302 38.2739C28.6251 38.1687 28.5658 38.0263 28.5652 37.8777C28.5652 37.7286 28.6243 37.5857 28.7295 37.4801C28.8347 37.3745 28.9774 37.3149 29.1264 37.3144ZM35.8755 37.3144C36.0249 37.3144 36.1681 37.3737 36.2738 37.4793C36.3794 37.585 36.4388 37.7283 36.4388 37.8777C36.4382 38.0267 36.3786 38.1694 36.273 38.2746C36.1675 38.3798 36.0245 38.4388 35.8755 38.4388C35.7268 38.4383 35.5844 38.379 35.4793 38.2739C35.3741 38.1687 35.3148 38.0263 35.3143 37.8777C35.3143 37.7286 35.3733 37.5857 35.4785 37.4801C35.5837 37.3745 35.7264 37.3149 35.8755 37.3144Z" fill="#99C0ED"/>
</svg>
