<svg width="32" height="32" viewBox="0 0 32 32" fill="none" xmlns="http://www.w3.org/2000/svg">
<path d="M22 2H10C5.58172 2 2 5.58172 2 10V22C2 26.4183 5.58172 30 10 30H22C26.4183 30 30 26.4183 30 22V10C30 5.58172 26.4183 2 22 2Z" fill="#4E4F49"/>
<path d="M22 6.5H10C8.89543 6.5 8 7.39543 8 8.5V23.5C8 24.6046 8.89543 25.5 10 25.5H22C23.1046 25.5 24 24.6046 24 23.5V8.5C24 7.39543 23.1046 6.5 22 6.5Z" fill="#FBF5F5"/>
<path d="M8 16.5H24V22.3C24 23.4201 24 23.9802 23.782 24.408C23.5902 24.7843 23.2843 25.0902 22.908 25.282C22.4802 25.5 21.9201 25.5 20.8 25.5H11.2C10.0799 25.5 9.51985 25.5 9.092 25.282C8.7157 25.0902 8.40975 24.7843 8.218 24.408C8 23.9802 8 23.4201 8 22.3V16.5Z" fill="#E7F0F7"/>
<path d="M18 6.5H24V12.5H20C18.8954 12.5 18 11.6046 18 10.5V6.5Z" fill="#CEDFF1"/>
<path d="M26 14.5L16 4.5H26V14.5Z" fill="#4E4F49"/>
<path d="M6.5 16.5H25.5" stroke="#99C0ED" stroke-width="0.75" stroke-linecap="round"/>
</svg>
